<?xml version="1.0" encoding="UTF-8" standalone="no"?>
<!-- Created with Inkscape (http://www.inkscape.org/) -->

<svg
   width="41.996826mm"
   height="23.260767mm"
   viewBox="0 0 41.996825 23.260767"
   version="1.1"
   id="svg5"
   inkscape:version="1.1.2 (b8e25be833, 2022-02-05)"
   sodipodi:docname="favicon.svg"
   xmlns:inkscape="http://www.inkscape.org/namespaces/inkscape"
   xmlns:sodipodi="http://sodipodi.sourceforge.net/DTD/sodipodi-0.dtd"
   xmlns="http://www.w3.org/2000/svg"
   xmlns:svg="http://www.w3.org/2000/svg">
  <sodipodi:namedview
     id="namedview7"
     pagecolor="#ffffff"
     bordercolor="#666666"
     borderopacity="1.0"
     inkscape:pageshadow="2"
     inkscape:pageopacity="0.0"
     inkscape:pagecheckerboard="0"
     inkscape:document-units="mm"
     showgrid="false"
     fit-margin-top="0"
     fit-margin-left="0"
     fit-margin-right="0"
     fit-margin-bottom="0"
     inkscape:zoom="1.4142136"
     inkscape:cx="167.93786"
     inkscape:cy="-28.284271"
     inkscape:window-width="2560"
     inkscape:window-height="1369"
     inkscape:window-x="-8"
     inkscape:window-y="-8"
     inkscape:window-maximized="1"
     inkscape:current-layer="layer1" />
  <defs
     id="defs2">
    <rect
       x="312.83456"
       y="17.241152"
       width="244.36559"
       height="41.448711"
       id="rect9944" />
    <rect
       x="552.25043"
       y="30.405592"
       width="220.61732"
       height="51.618793"
       id="rect9410" />
  </defs>
  <g
     inkscape:label="Layer 1"
     inkscape:groupmode="layer"
     id="layer1"
     transform="translate(-21.722509,-110.06421)">
    <path
       style="fill:#000000;stroke-width:0.128727"
       d="m 43.545518,133.10697 c -2.615604,-0.35927 -4.952534,-1.09717 -7.149989,-2.25766 l -1.492171,-0.78803 -1.08172,-0.87389 -1.081721,-0.8739 -1.467406,0.45653 c -0.807073,0.25109 -2.138883,0.6225 -2.959578,0.82535 l -1.492171,0.36883 -1.492172,0.0113 -1.492171,0.0113 -0.72134,-0.37959 -0.72134,-0.3796 -0.335614,-0.54406 -0.335616,-0.54405 0.0045,-1.00864 0.0045,-1.00864 0.406845,-0.84441 0.406844,-0.8444 0.813126,-0.85864 0.813124,-0.85864 1.262481,-0.65777 1.262483,-0.65778 1.243476,-0.32777 c 0.683912,-0.18027 1.396505,-0.36314 1.583539,-0.40639 l 0.340062,-0.0786 0.07247,-0.36444 c 0.996715,-5.01204 6.181696,-8.88094 13.334045,-9.94952 l 1.403185,-0.20965 h 2.10536 2.10536 l 1.403185,0.20964 c 6.493605,0.97017 11.603708,4.40114 13.030459,8.7488 l 0.274442,0.83628 0.06367,1.40091 0.06367,1.40091 -0.203363,0.86454 c -1.513158,6.43269 -10.723528,10.85172 -19.970464,9.58161 z m 6.822095,-2.07141 c 3.490395,-0.53603 6.564469,-1.88458 8.733936,-3.83143 l 0.920029,-0.82563 0.642383,-0.96001 0.642383,-0.96001 0.281937,-0.90049 0.281936,-0.9005 -0.01109,-1.06609 -0.01109,-1.06609 -0.250356,-0.75583 C 60.373932,116.075 56.03103,113.1948 50.26029,112.25057 l -1.305651,-0.21364 h -2.176083 -2.176083 l -1.305651,0.21364 c -5.77003,0.94411 -9.988055,3.73128 -11.31274,7.47517 l -0.282908,0.79957 0.0028,1.13272 0.0028,1.13273 0.251478,0.75582 c 0.290675,0.87363 1.058339,2.21652 1.331231,2.32874 0.264959,0.10897 9.080912,-3.20727 9.421141,-3.54388 0.05378,-0.0532 -0.128082,-0.71783 -0.40413,-1.47695 -0.276055,-0.75911 -0.501913,-1.44747 -0.501913,-1.52967 0,-0.1418 1.582185,-0.82034 1.667392,-0.71509 0.02223,0.0275 0.247739,0.6496 0.501139,1.38253 0.253399,0.73294 0.508716,1.38538 0.56737,1.44987 l 0.106647,0.11725 3.024153,-1.27587 c 1.663285,-0.70173 3.097227,-1.2942 3.186537,-1.3166 l 0.162385,-0.0407 0.305744,0.7937 c 0.406496,1.05525 0.625975,0.87586 -2.871615,2.3471 -1.704867,0.71714 -3.119652,1.36785 -3.143966,1.44603 -0.02432,0.0782 0.184153,0.78973 0.46326,1.58125 0.279108,0.79152 0.507469,1.50045 0.507469,1.57541 0,0.13266 -1.587753,0.80141 -1.66647,0.70191 -0.02172,-0.0275 -0.279025,-0.73955 -0.571788,-1.58243 -0.292763,-0.84288 -0.54486,-1.54939 -0.560217,-1.57003 -0.01536,-0.0206 -1.588272,0.58519 -3.495368,1.34628 -1.907095,0.7611 -3.850188,1.51927 -4.317984,1.68483 l -0.850538,0.30103 0.601843,0.46235 c 3.443592,2.64547 9.467772,3.86343 14.946969,3.02196 z m -21.868158,-3.51129 c 1.375398,-0.36207 2.729695,-0.77802 2.834359,-0.87053 0.02009,-0.0178 -0.161662,-0.38447 -0.403905,-0.81492 -0.422574,-0.75087 -0.830611,-1.89754 -1.001617,-2.81475 l -0.08073,-0.43298 -0.332099,0.0792 c -1.257964,0.29996 -2.340187,0.68196 -3.241545,1.14417 l -1.044232,0.53548 -0.592047,0.63449 c -0.711526,0.76253 -1.112092,1.55679 -1.112092,2.20509 v 0.47816 l 0.40413,0.19806 0.404129,0.19807 1.30565,-0.0652 1.305651,-0.0652 z"
       id="path64660" />
    <text
       xml:space="preserve"
       transform="matrix(0.26458333,0,0,0.26458333,7.3695526,96.545815)"
       id="text9408"
       style="font-size:40px;line-height:1.25;font-family:Calibri;-inkscape-font-specification:Calibri;white-space:pre;shape-inside:url(#rect9410)" />
    <text
       xml:space="preserve"
       transform="matrix(0.26458333,0,0,0.26458333,7.3695526,96.545815)"
       id="text9942"
       style="font-size:40px;line-height:1.25;font-family:Calibri;-inkscape-font-specification:Calibri;white-space:pre;shape-inside:url(#rect9944)" />
  </g>
</svg>
